<svg id="Layer_1" height="512" viewBox="0 0 128 128" width="512" xmlns="http://www.w3.org/2000/svg" data-name="Layer 1"><path d="m74.1 18.2a1.753 1.753 0 0 0 -2.007-.774l-15.769 4.774a39.916 39.916 0 0 1 -17.672 1.213l-4.868-.769a5.6 5.6 0 0 0 -6.187 7.3 1.75 1.75 0 0 0 .806.974l1.416.792a43.436 43.436 0 0 0 21.137 5.49 42.737 42.737 0 0 0 6.051-.429 1.753 1.753 0 0 0 .993-.5l15.845-15.933a1.751 1.751 0 0 0 .255-2.138z" fill="#fec13b"/><path d="m70.645 83.737a82.459 82.459 0 0 0 -13.335 8.469 1.753 1.753 0 0 0 -.669 1.257 43.061 43.061 0 0 0 5.374 24.083l.792 1.416a1.751 1.751 0 0 0 .974.806 5.65 5.65 0 0 0 1.786.292 5.609 5.609 0 0 0 5.519-6.479l-.77-4.868a39.908 39.908 0 0 1 1.214-17.671l1.582-5.242a1.75 1.75 0 0 0 -2.468-2.066z" fill="#fec13b"/><path d="m72.1 17.429-10.564 3.194-7.357 7.357a86.407 86.407 0 0 0 -7.748 8.964 43.391 43.391 0 0 0 4.526.257 42.737 42.737 0 0 0 6.051-.429 1.753 1.753 0 0 0 .993-.5l15.844-15.934a1.75 1.75 0 0 0 -1.745-2.909z" fill="#ffa000"/><path d="m70.645 83.737a82.459 82.459 0 0 0 -13.335 8.469 1.753 1.753 0 0 0 -.669 1.257 43.338 43.338 0 0 0 .481 10.109c.334-.319.666-.632 1-.934a73.462 73.462 0 0 1 12.817-9.394q.266-1.11.595-2.2l1.578-5.244a1.75 1.75 0 0 0 -2.468-2.066z" fill="#ffa000"/><path d="m35.358 66.113-18.258 2.787-11.136-4.012a1.75 1.75 0 0 0 -1.186 3.293l8.5 3.059a15.24 15.24 0 0 0 -4.994 14.77 1.75 1.75 0 1 0 3.422-.733 11.743 11.743 0 0 1 4.627-12l1.277-.919 18.275-2.788a1.75 1.75 0 1 0 -.527-3.46z" fill="#ffa000"/><path d="m83.729 10.168a1.75 1.75 0 0 0 -1.314-2.1l-3.05-.7a33.99 33.99 0 0 0 -28.445 6.232 1.75 1.75 0 0 0 2.137 2.772 30.5 30.5 0 0 1 25.524-5.589l3.05.7a1.755 1.755 0 0 0 2.098-1.315z" fill="#ffa000"/><path d="m86.721 80.225-.439-1.914a1.75 1.75 0 0 0 -3.412.783l.439 1.914a18.485 18.485 0 0 1 -3.388 15.472 1.75 1.75 0 1 0 2.771 2.137 21.977 21.977 0 0 0 4.029-18.392z" fill="#ffa000"/><path d="m126.19 10.52-4.28 4.29a27.155 27.155 0 0 1 -.71 29.38 28.525 28.525 0 0 1 -2.17 2.78c-.35.4-.72.79-1.1 1.17l-3.21 3.21-2.48 2.48-16.56 16.57-.03.02c-.82.82-1.65 1.61-2.5 2.39a79.981 79.981 0 0 1 -6.84 5.64c-1.01.75-2.04 1.47-3.09 2.17a80.519 80.519 0 0 1 -9.19 5.33l-1.09.54a78.538 78.538 0 0 0 -18.2 12.46c-.85.78-1.68 1.58-2.5 2.4l-.03.03-.46.46q-2.145 2.145-4.44 4.16c-.88.77-1.78 1.52-2.69 2.26a92.385 92.385 0 0 1 -34.08 17.43l-8.33 2.25a1.817 1.817 0 0 1 -.46.06 1.756 1.756 0 0 1 -1.24-.51 1.777 1.777 0 0 1 -.45-1.7l2.01-7.43a93.426 93.426 0 0 1 23.93-41.96 78.162 78.162 0 0 0 15.38-21.58 93.344 93.344 0 0 1 6.1-10.74c.66-.99 1.34-1.97 2.03-2.92a81.447 81.447 0 0 1 8.21-9.65l18.76-18.76 2.48-2.47.55-.56a27.052 27.052 0 0 1 33.76-3.7l4.21-4.21a6.165 6.165 0 0 1 10.52 4.35 6.094 6.094 0 0 1 -1.81 4.36z" fill="#fec13b"/><path d="m126.19 10.52-4.28 4.29a27.155 27.155 0 0 1 -.71 29.38 28.525 28.525 0 0 1 -2.17 2.78c-.35.4-.72.79-1.1 1.17l-3.21 3.21-2.48 2.48-16.56 16.57-.03.02c-.82.82-1.65 1.61-2.5 2.39a79.981 79.981 0 0 1 -6.84 5.64c-1.01.75-2.04 1.47-3.09 2.17a80.519 80.519 0 0 1 -9.19 5.33l-1.09.54a78.538 78.538 0 0 0 -18.2 12.46c-.85.78-1.68 1.58-2.5 2.4l-.03.03-.46.46q-2.145 2.145-4.44 4.16c-.88.77-1.78 1.52-2.69 2.26a92.385 92.385 0 0 1 -34.08 17.43l-8.33 2.25a1.817 1.817 0 0 1 -.46.06 1.756 1.756 0 0 1 -1.24-.51 1.777 1.777 0 0 1 -.45-1.7l2.01-7.43a93.426 93.426 0 0 1 23.93-41.96 78.162 78.162 0 0 0 15.38-21.58 93.344 93.344 0 0 1 6.1-10.74c.66-.99 1.34-1.97 2.03-2.92a81.447 81.447 0 0 1 8.21-9.65l18.76-18.76 2.48-2.47.55-.56a27.052 27.052 0 0 1 33.76-3.7l4.21-4.21a6.165 6.165 0 0 1 10.52 4.35 6.094 6.094 0 0 1 -1.81 4.36z" fill="#fec13b"/><g fill="#ffa000"><path d="m128 6.16a6.18 6.18 0 0 0 -4.117-5.806 6.129 6.129 0 0 1 -1.456 6.4l-4.28 4.29a27.155 27.155 0 0 1 -.71 29.38 28.525 28.525 0 0 1 -2.17 2.78c-.35.4-.72.79-1.1 1.17l-3.21 3.21-2.48 2.48-16.56 16.57-.03.02c-.82.82-1.65 1.61-2.5 2.39a79.981 79.981 0 0 1 -6.84 5.64c-1.01.75-2.04 1.47-3.09 2.17a80.519 80.519 0 0 1 -9.19 5.33l-1.09.54a78.538 78.538 0 0 0 -18.2 12.46c-.85.78-1.68 1.58-2.5 2.4l-.03.03-.46.46q-2.145 2.145-4.44 4.16c-.88.77-1.78 1.52-2.69 2.26a92.385 92.385 0 0 1 -34.08 17.43l-6.119 1.656-.6 2.21a1.777 1.777 0 0 0 .45 1.7 1.756 1.756 0 0 0 1.24.51 1.817 1.817 0 0 0 .46-.06l8.33-2.25a92.385 92.385 0 0 0 34.08-17.43c.91-.74 1.81-1.49 2.69-2.26q2.3-2.01 4.44-4.16l.46-.46.03-.03c.82-.82 1.65-1.62 2.5-2.4a78.538 78.538 0 0 1 18.2-12.46l1.09-.54a80.519 80.519 0 0 0 9.19-5.33c1.05-.7 2.08-1.42 3.09-2.17a79.981 79.981 0 0 0 6.84-5.64c.85-.78 1.68-1.57 2.5-2.39l.03-.02 16.56-16.57 2.48-2.48 3.21-3.21c.38-.38.75-.77 1.1-1.17a28.525 28.525 0 0 0 2.17-2.78 27.155 27.155 0 0 0 .71-29.38l4.28-4.29a6.094 6.094 0 0 0 1.812-4.36z"/><path d="m121.2 44.19a28.525 28.525 0 0 1 -2.17 2.78l-12.07-12.06a1.754 1.754 0 0 1 2.48-2.48z"/><path d="m114.72 51.35-2.48 2.48-7.63-7.63a1.754 1.754 0 1 1 2.48-2.48z"/><path d="m78.957 43.7a1.743 1.743 0 0 1 -1.237-.513l-5.7-5.7a1.75 1.75 0 0 1 2.475-2.475l5.7 5.7a1.75 1.75 0 0 1 -1.238 2.988z"/><path d="m61.39 55.52a1.75 1.75 0 0 1 -2.47 0l-11.44-11.44c.66-.99 1.34-1.97 2.03-2.92l11.88 11.89a1.732 1.732 0 0 1 0 2.47z"/><path d="m56.229 65.512a1.743 1.743 0 0 1 -1.237-.512l-4.546-4.546a1.75 1.75 0 0 1 2.475-2.475l4.546 4.546a1.75 1.75 0 0 1 -1.237 2.987z"/><path d="m54.74 98.95c-.85.78-1.68 1.58-2.5 2.4l-.03.03-11.45-11.45a1.754 1.754 0 0 1 2.48-2.48z"/><path d="m47.31 106c-.88.77-1.78 1.52-2.69 2.26l-8-8a1.75 1.75 0 1 1 2.47-2.48z"/><path d="m95.68 70.4-.03.02c-.82.82-1.65 1.61-2.5 2.39l-12.36-12.36a1.747 1.747 0 0 1 2.47-2.47z"/><path d="m81.628 72.623a1.743 1.743 0 0 1 -1.237-.513l-8.373-8.373a1.75 1.75 0 0 1 2.475-2.475l8.373 8.373a1.75 1.75 0 0 1 -1.237 2.987z"/><path d="m89.28 23.07a1.763 1.763 0 0 1 -2.48 0l-10.32-10.32 2.48-2.47 10.32 10.32a1.75 1.75 0 0 1 0 2.47z"/><path d="m96.989 20.865a1.743 1.743 0 0 1 -1.237-.513l-5.739-5.74a1.75 1.75 0 0 1 2.475-2.475l5.739 5.74a1.75 1.75 0 0 1 -1.237 2.987z"/></g></svg>