<svg id="Flat" height="512" viewBox="0 0 512 512" width="512" xmlns="http://www.w3.org/2000/svg"><path d="m320 72h24s-16 104-16 176v160h-32v-160c0-72 24-176 24-176z" fill="#d9db5e"/><path d="m288 32h-24v352h32v-176c0-64-4.762-129.254-8-176z" fill="#b1bd70"/><rect fill="#e1e3e6" height="160" rx="16" width="48" x="368" y="144"/><ellipse cx="392" cy="368" fill="#e9eef2" rx="88" ry="80"/><path d="m262.733 149.574a31.39 31.39 0 0 0 -44.747 0l-17.986 18.426v-16a40.16 40.16 0 0 0 -40-40 40.16 40.16 0 0 0 -40 40v69.49l-17.986-20.117a31.39 31.39 0 0 0 -44.747 0 32.257 32.257 0 0 0 0 45.254l62.733 57.373v16h79.8l.2-64 62.733-61.172a32.257 32.257 0 0 0 0-45.254z" fill="#f7b030"/><g fill="#e09f2c"><path d="m144 176h-24a8 8 0 0 1 0-16h24a8 8 0 0 1 0 16z"/><circle cx="168" cy="168" r="8"/><circle cx="168" cy="256" r="8"/><path d="m248 216a7.976 7.976 0 0 1 -5.657-2.343l-16-16a8 8 0 0 1 11.314-11.314l16 16a8 8 0 0 1 -5.657 13.657z"/><path d="m216 248a7.976 7.976 0 0 1 -5.657-2.343l-32-32a8 8 0 0 1 11.314-11.314l32 32a8 8 0 0 1 -5.657 13.657z"/><path d="m64 256a8 8 0 0 1 -5.657-13.657l16-16a8 8 0 0 1 11.314 11.314l-16 16a7.976 7.976 0 0 1 -5.657 2.343z"/><path d="m136 264h-16a8 8 0 0 1 0-16h16a8 8 0 0 1 0 16z"/></g><path d="m24 448h464a0 0 0 0 1 0 0 32 32 0 0 1 -32 32h-400a32 32 0 0 1 -32-32 0 0 0 0 1 0 0z" fill="#734b39"/><path d="m32 304c0 47.762 29.9 87.9 72 104v40h80v-40c42.1-16.1 72-56.238 72-104z" fill="#ad6643"/><path d="m256 304c0 47.76-29.9 87.9-72 104v40h-80v-40c-42.1-16.1-72-56.24-72-104z" fill="#ad6643"/><path d="m280 338.332v-10.332a16 16 0 0 0 -16-16 16 16 0 0 0 -16 16v10.332a56 56 0 1 0 32 0z" fill="#828c52"/><circle cx="264" cy="416" fill="#b1bd70" r="8"/><circle cx="288" cy="400" fill="#b1bd70" r="8"/><path d="m160 416a8 8 0 0 1 -8 8h-48v-16h48a8 8 0 0 1 8 8z" fill="#734b39"/><path d="m416 264h-48a8 8 0 0 1 0-16h48a8 8 0 0 1 0 16z" fill="#d0d2d4"/><path d="m416 232h-48a8 8 0 0 1 0-16h48a8 8 0 0 1 0 16z" fill="#d0d2d4"/><path d="m416 200h-48a8 8 0 0 1 0-16h48a8 8 0 0 1 0 16z" fill="#d0d2d4"/><path d="m371.46 290.15c-1.05.23-2.1.48-3.14.75-4.63 8.62-8.32 18.73-8.32 29.05v8a8 8 0 1 0 16 0v-8c0-8.16 3.63-17.95 10.49-28.31.85-1.28 1.7-2.5 2.53-3.64-.55.01-1.09.04-1.63.06a94.558 94.558 0 0 0 -15.93 2.09z" fill="#d0d2d4"/><path d="m415.68 290.9c-1.04-.27-2.09-.52-3.14-.75a95.113 95.113 0 0 0 -15.89-2.08c-.54-.03-1.09-.05-1.64-.06 6.31 8.74 12.99 20.85 12.99 31.94v8a8 8 0 1 0 16 0v-8c0-10.32-3.69-20.43-8.32-29.05z" fill="#d0d2d4"/></svg>